<svg xmlns="http://www.w3.org/2000/svg" viewBox="0 0 900 230" role="img" aria-labelledby="title desc">
  <title id="title">77 SELECT by 77waxing</title>
  <desc id="desc">77select brand wordmark</desc>
  <defs>
    <linearGradient id="gold" x1="0" y1="0" x2="0.9" y2="1">
      <stop offset="0" stop-color="#e9c083"/>
      <stop offset="0.55" stop-color="#d3a563"/>
      <stop offset="1" stop-color="#f1d197"/>
    </linearGradient>
    <linearGradient id="taupe" x1="0" y1="0" x2="0" y2="1">
      <stop offset="0" stop-color="#6d5f52"/>
      <stop offset="1" stop-color="#9b8977"/>
    </linearGradient>
  </defs>
  <g fill="url(#gold)" transform="translate(24 38) scale(.62)">
    <path d="M36 45c-3-10 3-20 15-20h141c12 0 17 8 11 19L121 157c-7 10-17 16-29 16-16 0-21-10-13-24l70-92H56L42 81H17L36 45Z"/>
    <path d="M223 45c-3-10 3-20 15-20h141c12 0 17 8 11 19L308 157c-7 10-17 16-29 16-16 0-21-10-13-24l70-92h-93l-14 24h-25l19-36Z"/>
  </g>
  <text x="315" y="112" fill="url(#taupe)" font-family="Georgia, 'Times New Roman', serif" font-size="58" font-weight="500" letter-spacing="28">SELECT</text>
  <text x="315" y="178" fill="#9b8977" font-family="Georgia, 'Times New Roman', serif" font-size="28" font-weight="500" letter-spacing="20">BY 77WAXING</text>
</svg>
